<svg width="24" height="24" viewBox="0 0 24 24" fill="none" xmlns="http://www.w3.org/2000/svg">
<path fill-rule="evenodd" clip-rule="evenodd" d="M8.41904 3.67465C5.74987 2.56905 2.88908 2 0 2V0C3.15173 0 6.27259 0.620779 9.1844 1.82689C12.0962 3.033 14.742 4.80083 16.9706 7.02944C19.1992 9.25804 20.967 11.9038 22.1731 14.8156C23.3792 17.7274 24 20.8483 24 24H22C22 21.1109 21.431 18.2501 20.3254 15.581C19.2197 12.9118 17.5992 10.4865 15.5564 8.44365C13.5135 6.40076 11.0882 4.78025 8.41904 3.67465Z" fill="#EF7C2A"/>
<path fill-rule="evenodd" clip-rule="evenodd" d="M6.8883 7.36983C4.70444 6.46525 2.36379 5.99966 0 5.99966V3.99966C2.62644 3.99966 5.22716 4.51698 7.65367 5.52207C10.0802 6.52717 12.285 8.00036 14.1421 9.85753C15.9993 11.7147 17.4725 13.9195 18.4776 16.346C19.4827 18.7725 20 21.3732 20 23.9997H18C18 21.6359 17.5344 19.2952 16.6298 17.1114C15.7252 14.9275 14.3994 12.9432 12.7279 11.2717C11.0565 9.60029 9.07216 8.27442 6.8883 7.36983Z" fill="#EF7C2A"/>
<path fill-rule="evenodd" clip-rule="evenodd" d="M5.35757 11.066C3.65901 10.3625 1.83851 10.0003 0 10.0003V8.00034C2.10115 8.00034 4.18173 8.41419 6.12294 9.21826C8.06415 10.0223 9.82797 11.2009 11.3137 12.6866C12.7994 14.1724 13.978 15.9362 14.7821 17.8774C15.5861 19.8186 16 21.8992 16 24.0003H14C14 22.1618 13.6379 20.3413 12.9343 18.6428C12.2307 16.9442 11.1995 15.4009 9.8995 14.1008C8.59948 12.8008 7.05613 11.7696 5.35757 11.066Z" fill="#EF7C2A"/>
</svg>
