<svg width="24" height="24" viewBox="0 0 24 24" fill="none" xmlns="http://www.w3.org/2000/svg">
<path fill-rule="evenodd" clip-rule="evenodd" d="M1.39964 3.00203C1 3.78638 1 4.81314 1 6.86667V17.1333C1 19.1869 1 20.2136 1.39964 20.998C1.75118 21.6879 2.31211 22.2488 3.00203 22.6004C3.78638 23 4.81314 23 6.86667 23H17.1333C19.1869 23 20.2136 23 20.998 22.6004C21.6879 22.2488 22.2488 21.6879 22.6004 20.998C23 20.2136 23 19.1869 23 17.1333V6.86667C23 4.81314 23 3.78638 22.6004 3.00203C22.2488 2.31211 21.6879 1.75118 20.998 1.39964C20.2136 1 19.1869 1 17.1333 1H6.86667C4.81314 1 3.78638 1 3.00203 1.39964C2.31211 1.75118 1.75118 2.31211 1.39964 3.00203ZM18.2071 9.40711C18.5976 9.01658 18.5976 8.38342 18.2071 7.99289C17.8166 7.60237 17.1834 7.60237 16.7929 7.99289L10.1667 14.6191L7.20711 11.6596C6.81658 11.269 6.18342 11.269 5.79289 11.6596C5.40237 12.0501 5.40237 12.6832 5.79289 13.0738L9.45956 16.7404C9.85009 17.131 10.4832 17.131 10.8738 16.7404L18.2071 9.40711Z" fill="#343A40"/>
</svg>
