<svg width="128" height="21" viewBox="0 0 128 21" fill="none" xmlns="http://www.w3.org/2000/svg">
<path d="M113.327 20.1442C112.431 20.1442 111.631 19.9789 110.927 19.6483C110.223 19.3069 109.673 18.8376 109.279 18.2403C108.895 17.6323 108.703 16.9443 108.703 16.1763V12.5922C108.703 11.8242 108.895 11.1416 109.279 10.5443C109.673 9.94692 110.217 9.48292 110.911 9.15225C111.604 8.82158 112.399 8.65625 113.295 8.65625C114.191 8.65625 114.985 8.80025 115.679 9.08825C116.372 9.36558 116.911 9.75492 117.295 10.2563C117.689 10.7576 117.887 11.3336 117.887 11.9843C117.887 12.3043 117.78 12.5549 117.567 12.7363C117.353 12.9176 117.071 13.0083 116.719 13.0083C116.644 13.0083 116.532 12.9976 116.383 12.9763C116.404 12.8483 116.415 12.6456 116.415 12.3683C116.415 11.9096 116.281 11.4989 116.015 11.1363C115.759 10.7736 115.391 10.4909 114.911 10.2882C114.441 10.0856 113.903 9.98425 113.295 9.98425C112.697 9.98425 112.164 10.0963 111.695 10.3203C111.225 10.5336 110.857 10.8429 110.591 11.2483C110.335 11.6429 110.207 12.0909 110.207 12.5922V16.1763C110.207 16.6883 110.335 17.1469 110.591 17.5523C110.857 17.9469 111.225 18.2563 111.695 18.4803C112.175 18.7043 112.719 18.8163 113.327 18.8163C113.945 18.8163 114.495 18.7149 114.975 18.5123C115.455 18.3096 115.828 18.0323 116.095 17.6803C116.361 17.3176 116.495 16.9016 116.495 16.4323C116.495 16.2616 116.484 16.0589 116.463 15.8243C116.612 15.8029 116.719 15.7923 116.783 15.7923C117.135 15.7923 117.417 15.8936 117.631 16.0963C117.855 16.2989 117.967 16.5709 117.967 16.9123C117.967 17.5416 117.769 18.1016 117.375 18.5923C116.98 19.0829 116.431 19.4669 115.727 19.7443C115.033 20.0109 114.233 20.1442 113.327 20.1442Z" fill="#171A1D"/>
<path d="M104.952 9.90425C104.952 9.50958 105.08 9.20558 105.336 8.99225C105.603 8.76825 105.976 8.65625 106.456 8.65625V18.8963C106.456 19.2909 106.323 19.6003 106.056 19.8243C105.8 20.0376 105.432 20.1442 104.952 20.1442V9.90425Z" fill="#171A1D"/>
<path d="M91.745 9.90425C91.745 9.50958 91.8783 9.20558 92.145 8.99225C92.4117 8.76825 92.7797 8.65625 93.249 8.65625L97.121 17.9523L96.817 18.7043L96.929 18.7523L101.025 8.65625C101.494 8.65625 101.862 8.76825 102.129 8.99225C102.406 9.21625 102.545 9.52558 102.545 9.92025V20.1442C101.553 20.1442 101.057 19.7336 101.057 18.9123V12.1763L101.473 11.0723L101.345 11.0403L97.777 19.7123C97.7237 19.8403 97.6383 19.9416 97.521 20.0163C97.4037 20.1016 97.281 20.1442 97.153 20.1442C97.0143 20.1442 96.8863 20.1069 96.769 20.0323C96.6517 19.9576 96.5663 19.8509 96.513 19.7123L92.945 11.0243L92.817 11.0723L93.233 12.1603V18.9123C93.233 19.3176 93.105 19.6269 92.849 19.8403C92.6037 20.0429 92.2357 20.1442 91.745 20.1442V9.90425Z" fill="#171A1D"/>
<path d="M81.7009 20.1442C81.3809 20.0802 81.1302 19.9469 80.9489 19.7443C80.7675 19.5309 80.6769 19.2749 80.6769 18.9763C80.6769 18.7736 80.7249 18.5603 80.8209 18.3363L84.6449 9.13625C84.7729 8.81625 85.0182 8.65625 85.3809 8.65625C85.7222 8.65625 85.9622 8.81625 86.1009 9.13625L89.9249 18.3363C90.0209 18.5603 90.0689 18.7736 90.0689 18.9763C90.0689 19.2643 89.9782 19.5149 89.7969 19.7283C89.6155 19.9416 89.3649 20.0802 89.0449 20.1442L87.6689 16.8003H83.0769L81.7009 20.1442ZM87.2049 15.5043L85.1409 10.2723L85.0129 10.3203L85.3009 11.0563L83.5409 15.5043H87.2049Z" fill="#171A1D"/>
<path d="M70.5806 9.50429C70.5806 9.30163 70.65 9.13629 70.7886 9.00829C70.938 8.86963 71.1246 8.80029 71.3486 8.80029H75.7646C76.7993 8.80029 77.6206 9.10429 78.2286 9.71229C78.8473 10.3096 79.1566 11.1096 79.1566 12.1123C79.1566 13.371 78.6073 14.2616 77.5086 14.7843V14.8323C77.9886 15.035 78.3566 15.3443 78.6126 15.7603C78.8686 16.1656 78.9966 16.6616 78.9966 17.2483V18.8963C78.9966 19.3016 78.8686 19.611 78.6126 19.8243C78.3566 20.0376 77.9833 20.1443 77.4926 20.1443V17.3443C77.4926 16.715 77.3486 16.2403 77.0606 15.9203C76.7833 15.5896 76.3673 15.4243 75.8126 15.4243H72.0686V18.8963C72.0686 19.3016 71.9406 19.611 71.6846 19.8243C71.4393 20.0376 71.0713 20.1443 70.5806 20.1443V9.50429ZM75.7166 14.1283C76.3033 14.1283 76.7673 13.947 77.1086 13.5843C77.4606 13.2216 77.6366 12.7256 77.6366 12.0963C77.6366 11.4563 77.4713 10.9656 77.1406 10.6243C76.81 10.283 76.3353 10.1123 75.7166 10.1123H72.0686V14.1283H75.7166Z" fill="#171A1D"/>
<path d="M60.725 9.50429C60.725 9.30163 60.7996 9.13629 60.949 9.00829C61.0983 8.86963 61.2796 8.80029 61.493 8.80029H68.581C68.581 9.24829 68.4903 9.57896 68.309 9.79229C68.1276 10.0056 67.845 10.1123 67.461 10.1123H62.229V13.6963H66.709C66.709 14.1443 66.6183 14.475 66.437 14.6883C66.2556 14.9016 65.9783 15.0083 65.605 15.0083H62.229V18.6883H67.797C68.1703 18.6883 68.4476 18.795 68.629 19.0083C68.8103 19.2216 68.901 19.5523 68.901 20.0003H61.493C61.2796 20.0003 61.0983 19.9363 60.949 19.8083C60.7996 19.6696 60.725 19.499 60.725 19.2963V9.50429Z" fill="#171A1D"/>
<path d="M54.4115 20.1442C53.5155 20.1442 52.7155 19.9789 52.0115 19.6483C51.3075 19.3069 50.7581 18.8376 50.3635 18.2403C49.9795 17.6323 49.7875 16.9443 49.7875 16.1763V12.5922C49.7875 11.8242 49.9795 11.1416 50.3635 10.5443C50.7581 9.94692 51.3021 9.48292 51.9955 9.15225C52.6888 8.82158 53.4835 8.65625 54.3795 8.65625C55.2755 8.65625 56.0701 8.80025 56.7635 9.08825C57.4568 9.36558 57.9955 9.75492 58.3795 10.2563C58.7741 10.7576 58.9715 11.3336 58.9715 11.9843C58.9715 12.3043 58.8648 12.5549 58.6515 12.7363C58.4381 12.9176 58.1555 13.0083 57.8035 13.0083C57.7288 13.0083 57.6168 12.9976 57.4675 12.9763C57.4888 12.8483 57.4995 12.6456 57.4995 12.3683C57.4995 11.9096 57.3661 11.4989 57.0995 11.1363C56.8435 10.7736 56.4755 10.4909 55.9955 10.2882C55.5261 10.0856 54.9875 9.98425 54.3795 9.98425C53.7821 9.98425 53.2488 10.0963 52.7795 10.3203C52.3101 10.5336 51.9421 10.8429 51.6755 11.2483C51.4195 11.6429 51.2915 12.0909 51.2915 12.5922V16.1763C51.2915 16.6883 51.4195 17.1469 51.6755 17.5523C51.9421 17.9469 52.3101 18.2563 52.7795 18.4803C53.2595 18.7043 53.8035 18.8163 54.4115 18.8163C55.0301 18.8163 55.5795 18.7149 56.0595 18.5123C56.5395 18.3096 56.9128 18.0323 57.1795 17.6803C57.4461 17.3176 57.5795 16.9016 57.5795 16.4323C57.5795 16.2616 57.5688 16.0589 57.5475 15.8243C57.6968 15.8029 57.8035 15.7923 57.8675 15.7923C58.2195 15.7923 58.5021 15.8936 58.7155 16.0963C58.9395 16.2989 59.0515 16.5709 59.0515 16.9123C59.0515 17.5416 58.8541 18.1016 58.4595 18.5923C58.0648 19.0829 57.5155 19.4669 56.8115 19.7443C56.1181 20.0109 55.3181 20.1442 54.4115 20.1442Z" fill="#171A1D"/>
<path d="M43.6436 20.1442C42.7583 20.1442 41.9636 19.9736 41.2596 19.6323C40.5663 19.2803 40.0223 18.8003 39.6276 18.1923C39.233 17.5736 39.0356 16.8909 39.0356 16.1443V12.6243C39.0356 11.8776 39.233 11.2056 39.6276 10.6083C40.0223 10.0003 40.5663 9.52558 41.2596 9.18425C41.9636 8.83225 42.7583 8.65625 43.6436 8.65625C44.5396 8.65625 45.3343 8.83225 46.0276 9.18425C46.7316 9.52558 47.281 10.0003 47.6756 10.6083C48.0703 11.2056 48.2676 11.8776 48.2676 12.6243V16.1443C48.2676 16.8909 48.0703 17.5736 47.6756 18.1923C47.281 18.8003 46.7316 19.2803 46.0276 19.6323C45.3236 19.9736 44.529 20.1442 43.6436 20.1442ZM43.6436 18.8323C44.6356 18.8323 45.409 18.5869 45.9636 18.0963C46.5183 17.6056 46.7956 16.9496 46.7956 16.1283V12.6563C46.7956 11.8349 46.5183 11.1843 45.9636 10.7043C45.409 10.2136 44.6356 9.96825 43.6436 9.96825C42.6623 9.96825 41.8943 10.2136 41.3396 10.7043C40.785 11.1843 40.5076 11.8349 40.5076 12.6563V16.1283C40.5076 16.9496 40.785 17.6056 41.3396 18.0963C41.8943 18.5869 42.6623 18.8323 43.6436 18.8323Z" fill="#171A1D"/>
<path d="M32.1609 20.0003C31.9476 20.0003 31.7609 19.9256 31.6009 19.7762C31.4516 19.6163 31.3769 19.4296 31.3769 19.2163V9.90425C31.3769 9.07225 31.8782 8.65625 32.8809 8.65625V18.6723H37.7929C38.1662 18.6723 38.4542 18.7896 38.6569 19.0243C38.8596 19.2483 38.9609 19.5736 38.9609 20.0003H32.1609Z" fill="#171A1D"/>
<path d="M20.6775 9.50429C20.6775 9.30163 20.7468 9.13629 20.8855 9.00829C21.0348 8.86963 21.2215 8.80029 21.4455 8.80029H26.1175C26.8215 8.80029 27.4455 8.94963 27.9895 9.24829C28.5335 9.53629 28.9548 9.94696 29.2535 10.4803C29.5522 11.003 29.7015 11.6056 29.7015 12.2883C29.7015 12.9923 29.5522 13.611 29.2535 14.1443C28.9655 14.6776 28.5495 15.0883 28.0055 15.3763C27.4615 15.6643 26.8322 15.8083 26.1175 15.8083H22.1815V18.8963C22.1815 19.3016 22.0535 19.611 21.7975 19.8243C21.5415 20.0376 21.1682 20.1443 20.6775 20.1443V9.50429ZM26.1175 14.4803C26.7575 14.4803 27.2642 14.2883 27.6375 13.9043C28.0108 13.5096 28.1975 12.971 28.1975 12.2883C28.1975 11.627 28.0055 11.1043 27.6215 10.7203C27.2482 10.3256 26.7468 10.1283 26.1175 10.1283H22.1815V14.4803H26.1175Z" fill="#171A1D"/>
<path d="M10.8219 9.50429C10.8219 9.30163 10.8966 9.13629 11.0459 9.00829C11.1952 8.86963 11.3766 8.80029 11.5899 8.80029H18.6779C18.6779 9.24829 18.5872 9.57896 18.4059 9.79229C18.2246 10.0056 17.9419 10.1123 17.5579 10.1123H12.3259V13.6963H16.8059C16.8059 14.1443 16.7152 14.475 16.5339 14.6883C16.3526 14.9016 16.0752 15.0083 15.7019 15.0083H12.3259V18.6883H17.8939C18.2672 18.6883 18.5446 18.795 18.7259 19.0083C18.9072 19.2216 18.9979 19.5523 18.9979 20.0003H11.5899C11.3766 20.0003 11.1952 19.9363 11.0459 19.8083C10.8966 19.6696 10.8219 19.499 10.8219 19.2963V9.50429Z" fill="#171A1D"/>
<path d="M3.904 10.1283H0C0 9.24296 0.416 8.80029 1.248 8.80029H9.296C9.296 9.68563 8.88 10.1283 8.048 10.1283H5.408V18.8963C5.408 19.3016 5.28 19.611 5.024 19.8243C4.768 20.0376 4.39467 20.1443 3.904 20.1443V10.1283Z" fill="#171A1D"/>
<path d="M113.44 4.6665C114.666 4.6665 115.879 4.90792 117.012 5.37696C118.144 5.84601 119.173 6.53349 120.04 7.40017C120.906 8.26686 121.594 9.29575 122.063 10.4281C122.532 11.5605 122.773 12.7742 122.773 13.9998H121.373C121.373 12.958 121.168 11.9264 120.769 10.9639C120.371 10.0014 119.786 9.1268 119.05 8.39012C118.313 7.65345 117.438 7.06908 116.476 6.67039C115.513 6.27171 114.482 6.0665 113.44 6.0665V4.6665Z" fill="#EF7C2A"/>
<path d="M113.44 2.3335C114.972 2.3335 116.489 2.63526 117.905 3.22157C119.32 3.80787 120.606 4.66723 121.69 5.75058C122.773 6.83393 123.632 8.12006 124.219 9.53552C124.805 10.951 125.107 12.4681 125.107 14.0002H123.707C123.707 12.6519 123.441 11.3169 122.925 10.0713C122.409 8.82567 121.653 7.69388 120.7 6.74053C119.746 5.78719 118.614 5.03095 117.369 4.515C116.123 3.99905 114.788 3.7335 113.44 3.7335V2.3335Z" fill="#EF7C2A"/>
<path d="M113.44 0C115.279 2.1924e-08 117.099 0.362121 118.798 1.06569C120.496 1.76925 122.039 2.80049 123.339 4.10051C124.64 5.40053 125.671 6.94387 126.374 8.64243C127.078 10.341 127.44 12.1615 127.44 14H126.04C126.04 12.3453 125.714 10.7069 125.081 9.17819C124.448 7.64949 123.52 6.26047 122.35 5.09046C121.18 3.92044 119.791 2.99233 118.262 2.35912C116.733 1.72591 115.095 1.4 113.44 1.4V0Z" fill="#EF7C2A"/>
</svg>
