<svg width="187" height="30" viewBox="0 0 187 30" fill="none" xmlns="http://www.w3.org/2000/svg">
<path d="M166.29 29.9999C164.976 29.9999 163.802 29.7537 162.769 29.2612C161.736 28.7529 160.93 28.0539 160.351 27.1643C159.787 26.2589 159.505 25.2342 159.505 24.0905V18.7529C159.505 17.6091 159.787 16.5925 160.351 15.7029C160.93 14.8133 161.728 14.1222 162.745 13.6298C163.763 13.1373 164.929 12.8911 166.243 12.8911C167.558 12.8911 168.724 13.1056 169.742 13.5345C170.759 13.9475 171.549 14.5273 172.113 15.274C172.692 16.0206 172.982 16.8784 172.982 17.8474C172.982 18.324 172.825 18.6973 172.512 18.9674C172.199 19.2374 171.784 19.3724 171.268 19.3724C171.158 19.3724 170.994 19.3566 170.775 19.3248C170.806 19.1342 170.822 18.8323 170.822 18.4193C170.822 17.7362 170.626 17.1246 170.235 16.5845C169.859 16.0444 169.319 15.6234 168.615 15.3216C167.926 15.0198 167.136 14.8689 166.243 14.8689C165.367 14.8689 164.584 15.0357 163.896 15.3693C163.207 15.687 162.667 16.1477 162.276 16.7513C161.9 17.3391 161.712 18.0063 161.712 18.7529V24.0905C161.712 24.853 161.9 25.5361 162.276 26.1397C162.667 26.7275 163.207 27.1882 163.896 27.5218C164.6 27.8554 165.398 28.0222 166.29 28.0222C167.198 28.0222 168.004 27.8712 168.709 27.5694C169.413 27.2676 169.961 26.8546 170.352 26.3303C170.743 25.7902 170.939 25.1707 170.939 24.4717C170.939 24.2176 170.923 23.9157 170.892 23.5662C171.111 23.5345 171.268 23.5186 171.362 23.5186C171.878 23.5186 172.293 23.6695 172.606 23.9713C172.935 24.2732 173.099 24.6782 173.099 25.1866C173.099 26.1238 172.809 26.9578 172.23 27.6886C171.651 28.4193 170.845 28.9912 169.812 29.4042C168.795 29.8014 167.621 29.9999 166.29 29.9999Z" fill="#F8F9FA"/>
<path d="M154.002 14.7497C154.002 14.162 154.19 13.7092 154.565 13.3915C154.957 13.0579 155.504 12.8911 156.209 12.8911V28.1413C156.209 28.7291 156.013 29.1898 155.622 29.5234C155.246 29.8411 154.706 29.9999 154.002 29.9999V14.7497Z" fill="#F8F9FA"/>
<path d="M134.623 14.7497C134.623 14.162 134.818 13.7092 135.21 13.3915C135.601 13.0579 136.141 12.8911 136.83 12.8911L142.511 26.7354L142.065 27.8554L142.229 27.9268L148.24 12.8911C148.928 12.8911 149.468 13.0579 149.86 13.3915C150.267 13.7251 150.47 14.1858 150.47 14.7736V29.9999C149.015 29.9999 148.287 29.3883 148.287 28.1651V18.1334L148.897 16.4892L148.709 16.4415L143.474 29.3566C143.396 29.5472 143.27 29.6981 143.098 29.8093C142.926 29.9364 142.746 29.9999 142.558 29.9999C142.355 29.9999 142.167 29.9443 141.995 29.8331C141.823 29.7219 141.697 29.5631 141.619 29.3566L136.384 16.4177L136.196 16.4892L136.806 18.1095V28.1651C136.806 28.7688 136.618 29.2295 136.243 29.5472C135.883 29.849 135.343 29.9999 134.623 29.9999V14.7497Z" fill="#F8F9FA"/>
<path d="M119.884 29.9999C119.415 29.9046 119.047 29.706 118.781 29.4042C118.515 29.0865 118.382 28.7052 118.382 28.2604C118.382 27.9586 118.452 27.6409 118.593 27.3073L124.204 13.606C124.392 13.1294 124.752 12.8911 125.284 12.8911C125.785 12.8911 126.137 13.1294 126.341 13.606L131.952 27.3073C132.093 27.6409 132.163 27.9586 132.163 28.2604C132.163 28.6894 132.03 29.0627 131.764 29.3804C131.498 29.6981 131.13 29.9046 130.661 29.9999L128.642 25.0198H121.903L119.884 29.9999ZM127.961 23.0897L124.932 15.2978L124.744 15.3693L125.167 16.4654L122.584 23.0897H127.961Z" fill="#F8F9FA"/>
<path d="M103.567 14.1539C103.567 13.8521 103.669 13.6059 103.872 13.4152C104.091 13.2087 104.365 13.1055 104.694 13.1055H111.174C112.692 13.1055 113.897 13.5582 114.789 14.4637C115.697 15.3533 116.151 16.5447 116.151 18.038C116.151 19.9125 115.345 21.2389 113.733 22.0173V22.0888C114.437 22.3906 114.977 22.8513 115.353 23.4708C115.728 24.0745 115.916 24.8132 115.916 25.6869V28.1412C115.916 28.7449 115.728 29.2055 115.353 29.5233C114.977 29.841 114.429 29.9998 113.709 29.9998V25.8298C113.709 24.8926 113.498 24.1857 113.075 23.7091C112.669 23.2167 112.058 22.9704 111.244 22.9704H105.75V28.1412C105.75 28.7449 105.563 29.2055 105.187 29.5233C104.827 29.841 104.287 29.9998 103.567 29.9998V14.1539ZM111.103 21.0403C111.964 21.0403 112.645 20.7703 113.146 20.2302C113.662 19.6901 113.921 18.9514 113.921 18.0141C113.921 17.061 113.678 16.3302 113.193 15.8219C112.708 15.3136 112.011 15.0594 111.103 15.0594H105.75V21.0403H111.103Z" fill="#F8F9FA"/>
<path d="M89.1052 14.1539C89.1052 13.8521 89.2148 13.6059 89.4339 13.4152C89.653 13.2087 89.9191 13.1055 90.2322 13.1055H100.633C100.633 13.7727 100.5 14.2651 100.234 14.5828C99.9676 14.9005 99.5528 15.0594 98.9893 15.0594H91.3121V20.397H97.8859C97.8859 21.0642 97.7529 21.5566 97.4868 21.8743C97.2207 22.192 96.8137 22.3509 96.2659 22.3509H91.3121V27.8314H99.4824C100.03 27.8314 100.437 27.9903 100.703 28.308C100.969 28.6257 101.102 29.1182 101.102 29.7854H90.2322C89.9191 29.7854 89.653 29.6901 89.4339 29.4994C89.2148 29.2929 89.1052 29.0387 89.1052 28.7369V14.1539Z" fill="#F8F9FA"/>
<path d="M79.8411 29.9999C78.5263 29.9999 77.3525 29.7537 76.3194 29.2612C75.2864 28.7529 74.4803 28.0539 73.9012 27.1643C73.3378 26.2589 73.056 25.2342 73.056 24.0905V18.7529C73.056 17.6091 73.3378 16.5925 73.9012 15.7029C74.4803 14.8133 75.2786 14.1222 76.296 13.6298C77.3133 13.1373 78.4794 12.8911 79.7941 12.8911C81.1089 12.8911 82.275 13.1056 83.2923 13.5345C84.3097 13.9475 85.1001 14.5273 85.6636 15.274C86.2427 16.0206 86.5322 16.8784 86.5322 17.8474C86.5322 18.324 86.3757 18.6973 86.0627 18.9674C85.7497 19.2374 85.3349 19.3724 84.8184 19.3724C84.7088 19.3724 84.5445 19.3566 84.3253 19.3248C84.3566 19.1342 84.3723 18.8323 84.3723 18.4193C84.3723 17.7362 84.1766 17.1246 83.7853 16.5845C83.4097 16.0444 82.8697 15.6234 82.1654 15.3216C81.4767 15.0198 80.6863 14.8689 79.7941 14.8689C78.9176 14.8689 78.135 15.0357 77.4464 15.3693C76.7577 15.687 76.2177 16.1477 75.8264 16.7513C75.4508 17.3391 75.2629 18.0063 75.2629 18.7529V24.0905C75.2629 24.853 75.4508 25.5361 75.8264 26.1397C76.2177 26.7275 76.7577 27.1882 77.4464 27.5218C78.1507 27.8554 78.9489 28.0222 79.8411 28.0222C80.7489 28.0222 81.555 27.8712 82.2593 27.5694C82.9636 27.2676 83.5114 26.8546 83.9027 26.3303C84.294 25.7902 84.4897 25.1707 84.4897 24.4717C84.4897 24.2176 84.474 23.9157 84.4427 23.5662C84.6619 23.5345 84.8184 23.5186 84.9123 23.5186C85.4288 23.5186 85.8436 23.6695 86.1566 23.9713C86.4853 24.2732 86.6496 24.6782 86.6496 25.1866C86.6496 26.1238 86.3601 26.9578 85.781 27.6886C85.2018 28.4193 84.3958 28.9912 83.3628 29.4042C82.3454 29.8014 81.1715 29.9999 79.8411 29.9999Z" fill="#F8F9FA"/>
<path d="M64.0408 29.9999C62.7417 29.9999 61.5756 29.7458 60.5426 29.2374C59.5252 28.7132 58.727 27.9983 58.1478 27.0929C57.5687 26.1715 57.2792 25.1548 57.2792 24.0428V18.8006C57.2792 17.6886 57.5687 16.6878 58.1478 15.7982C58.727 14.8927 59.5252 14.1858 60.5426 13.6775C61.5756 13.1532 62.7417 12.8911 64.0408 12.8911C65.3555 12.8911 66.5216 13.1532 67.5389 13.6775C68.572 14.1858 69.378 14.8927 69.9571 15.7982C70.5363 16.6878 70.8258 17.6886 70.8258 18.8006V24.0428C70.8258 25.1548 70.5363 26.1715 69.9571 27.0929C69.378 27.9983 68.572 28.7132 67.5389 29.2374C66.5059 29.7458 65.3399 29.9999 64.0408 29.9999ZM64.0408 28.046C65.4964 28.046 66.6311 27.6806 67.445 26.9499C68.2589 26.2191 68.6659 25.2422 68.6659 24.019V18.8482C68.6659 17.625 68.2589 16.656 67.445 15.9412C66.6311 15.2104 65.4964 14.845 64.0408 14.845C62.6008 14.845 61.4739 15.2104 60.66 15.9412C59.8461 16.656 59.4391 17.625 59.4391 18.8482V24.019C59.4391 25.2422 59.8461 26.2191 60.66 26.9499C61.4739 27.6806 62.6008 28.046 64.0408 28.046Z" fill="#F8F9FA"/>
<path d="M47.1915 29.7855C46.8785 29.7855 46.6046 29.6743 46.3698 29.4519C46.1507 29.2136 46.0411 28.9356 46.0411 28.6179V14.7497C46.0411 13.5107 46.7768 12.8911 48.248 12.8911V27.8077H55.4557C56.0035 27.8077 56.4261 27.9824 56.7235 28.3319C57.0209 28.6655 57.1696 29.15 57.1696 29.7855H47.1915Z" fill="#F8F9FA"/>
<path d="M30.3413 14.1539C30.3413 13.8521 30.443 13.6059 30.6465 13.4152C30.8656 13.2087 31.1396 13.1055 31.4682 13.1055H38.3237C39.3568 13.1055 40.2724 13.3279 41.0706 13.7727C41.8689 14.2016 42.4871 14.8132 42.9254 15.6075C43.3636 16.3858 43.5827 17.2834 43.5827 18.3001C43.5827 19.3485 43.3636 20.2699 42.9254 21.0642C42.5028 21.8584 41.8923 22.47 41.0941 22.899C40.2959 23.3279 39.3724 23.5423 38.3237 23.5423H32.5482V28.1412C32.5482 28.7449 32.3604 29.2055 31.9847 29.5233C31.6091 29.841 31.0613 29.9998 30.3413 29.9998V14.1539ZM38.3237 21.5646C39.2628 21.5646 40.0063 21.2786 40.5541 20.7067C41.1019 20.119 41.3758 19.3167 41.3758 18.3001C41.3758 17.3152 41.0941 16.5368 40.5306 15.9649C39.9828 15.3771 39.2472 15.0832 38.3237 15.0832H32.5482V21.5646H38.3237Z" fill="#F8F9FA"/>
<path d="M15.8795 14.1539C15.8795 13.8521 15.9891 13.6059 16.2082 13.4152C16.4273 13.2087 16.6934 13.1055 17.0064 13.1055H27.4071C27.4071 13.7727 27.274 14.2651 27.008 14.5828C26.7419 14.9005 26.3271 15.0594 25.7636 15.0594H18.0864V20.397H24.6602C24.6602 21.0642 24.5271 21.5566 24.2611 21.8743C23.995 22.192 23.588 22.3509 23.0402 22.3509H18.0864V27.8314H26.2567C26.8045 27.8314 27.2114 27.9903 27.4775 28.308C27.7436 28.6257 27.8766 29.1182 27.8766 29.7854H17.0064C16.6934 29.7854 16.4273 29.6901 16.2082 29.4994C15.9891 29.2929 15.8795 29.0387 15.8795 28.7369V14.1539Z" fill="#F8F9FA"/>
<path d="M5.72856 15.0832H0C0 13.7647 0.610421 13.1055 1.83126 13.1055H13.6406C13.6406 14.424 13.0301 15.0832 11.8093 15.0832H7.93547V28.1412C7.93547 28.7449 7.74765 29.2055 7.372 29.5233C6.99636 29.841 6.44855 29.9998 5.72856 29.9998V15.0832Z" fill="#F8F9FA"/>
<path d="M166.457 6.94995C168.256 6.94995 170.036 7.30948 171.698 8.00802C173.36 8.70656 174.869 9.73042 176.141 11.0211C177.413 12.3119 178.422 13.8442 179.11 15.5306C179.798 17.217 180.152 19.0245 180.152 20.8499H178.098C178.098 19.2983 177.797 17.7619 177.212 16.3285C176.627 14.895 175.769 13.5926 174.688 12.4955C173.608 11.3983 172.324 10.5281 170.912 9.9343C169.5 9.34054 167.986 9.03494 166.457 9.03494V6.94995Z" fill="#EF7C2A"/>
<path d="M166.457 3.4751C168.705 3.4751 170.931 3.92451 173.008 4.79768C175.085 5.67085 176.972 6.95068 178.562 8.56409C180.152 10.1775 181.413 12.0929 182.273 14.2009C183.133 16.3089 183.576 18.5683 183.576 20.85H181.522C181.522 18.8421 181.132 16.8539 180.375 14.9988C179.618 13.1437 178.508 11.4582 177.11 10.0384C175.711 8.6186 174.05 7.49235 172.222 6.72396C170.394 5.95557 168.435 5.56008 166.457 5.56008V3.4751Z" fill="#EF7C2A"/>
<path d="M166.457 0C169.155 3.26508e-08 171.826 0.539298 174.318 1.5871C176.811 2.63491 179.076 4.1707 180.983 6.10679C182.891 8.04288 184.404 10.3413 185.436 12.871C186.469 15.4006 187 18.1118 187 20.8499H184.946C184.946 18.3856 184.468 15.9455 183.538 13.6689C182.609 11.3922 181.247 9.32358 179.531 7.5811C177.814 5.83861 175.776 4.4564 173.532 3.51338C171.289 2.57036 168.885 2.08499 166.457 2.08499V0Z" fill="#EF7C2A"/>
</svg>
