<svg width="154" height="44" viewBox="0 0 154 44" fill="none" xmlns="http://www.w3.org/2000/svg">
<path d="M136.945 31C135.862 31 134.896 30.8031 134.045 30.4091C133.194 30.0024 132.53 29.4432 132.053 28.7316C131.589 28.0072 131.357 27.1875 131.357 26.2725V22.0024C131.357 21.0874 131.589 20.2741 132.053 19.5624C132.53 18.8507 133.188 18.2979 134.026 17.9039C134.863 17.51 135.824 17.313 136.906 17.313C137.989 17.313 138.949 17.4846 139.787 17.8277C140.625 18.1581 141.276 18.622 141.74 19.2193C142.217 19.8166 142.455 20.5028 142.455 21.278C142.455 21.6593 142.327 21.9579 142.069 22.174C141.811 22.39 141.469 22.4981 141.044 22.4981C140.954 22.4981 140.818 22.4853 140.638 22.4599C140.664 22.3074 140.677 22.066 140.677 21.7355C140.677 21.1891 140.516 20.6998 140.193 20.2677C139.884 19.8356 139.439 19.4988 138.859 19.2574C138.292 19.0159 137.641 18.8952 136.906 18.8952C136.185 18.8952 135.54 19.0286 134.973 19.2955C134.406 19.5497 133.961 19.9182 133.639 20.4012C133.33 20.8714 133.175 21.4051 133.175 22.0024V26.2725C133.175 26.8825 133.33 27.4289 133.639 27.9119C133.961 28.3821 134.406 28.7506 134.973 29.0175C135.553 29.2844 136.21 29.4178 136.945 29.4178C137.693 29.4178 138.357 29.2971 138.937 29.0556C139.517 28.8142 139.968 28.4838 140.29 28.0644C140.612 27.6323 140.773 27.1367 140.773 26.5775C140.773 26.3741 140.76 26.1327 140.735 25.8531C140.915 25.8277 141.044 25.815 141.121 25.815C141.547 25.815 141.888 25.9357 142.146 26.1772C142.417 26.4186 142.552 26.7427 142.552 27.1494C142.552 27.8992 142.314 28.5664 141.837 29.1509C141.36 29.7355 140.696 30.193 139.845 30.5235C139.007 30.8412 138.041 31 136.945 31Z" fill="#171A1D"/>
<path d="M126.825 18.7999C126.825 18.3297 126.98 17.9675 127.289 17.7133C127.611 17.4464 128.062 17.313 128.643 17.313V29.5131C128.643 29.9834 128.481 30.3519 128.159 30.6188C127.85 30.8729 127.405 31 126.825 31V18.7999Z" fill="#171A1D"/>
<path d="M110.866 18.7999C110.866 18.3297 111.027 17.9675 111.349 17.7133C111.671 17.4464 112.116 17.313 112.683 17.313L117.362 28.3884L116.995 29.2844L117.13 29.3416L122.08 17.313C122.647 17.313 123.092 17.4464 123.414 17.7133C123.749 17.9802 123.917 18.3487 123.917 18.8189V31C122.718 31 122.118 30.5108 122.118 29.5322V21.5068L122.621 20.1915L122.466 20.1533L118.155 30.4853C118.09 30.6378 117.987 30.7586 117.846 30.8475C117.704 30.9492 117.555 31 117.401 31C117.233 31 117.079 30.9556 116.937 30.8666C116.795 30.7776 116.692 30.6506 116.627 30.4853L112.316 20.1343L112.161 20.1915L112.664 21.4877V29.5322C112.664 30.0151 112.509 30.3837 112.2 30.6378C111.903 30.8793 111.459 31 110.866 31V18.7999Z" fill="#171A1D"/>
<path d="M98.7283 31C98.3416 30.9238 98.0387 30.7649 97.8195 30.5235C97.6004 30.2693 97.4908 29.9643 97.4908 29.6085C97.4908 29.367 97.5488 29.1128 97.6649 28.8459L102.286 17.8849C102.441 17.5036 102.737 17.313 103.175 17.313C103.588 17.313 103.878 17.5036 104.045 17.8849L108.666 28.8459C108.782 29.1128 108.84 29.367 108.84 29.6085C108.84 29.9516 108.731 30.2502 108.512 30.5044C108.292 30.7586 107.99 30.9238 107.603 31L105.94 27.0159H100.391L98.7283 31ZM105.379 25.4718L102.885 19.2383L102.731 19.2955L103.079 20.1724L100.952 25.4718H105.379Z" fill="#171A1D"/>
<path d="M85.2904 18.3234C85.2904 18.0819 85.3742 17.8849 85.5418 17.7324C85.7222 17.5672 85.9478 17.4846 86.2185 17.4846H91.5548C92.8051 17.4846 93.7976 17.8468 94.5323 18.5712C95.2799 19.2829 95.6537 20.236 95.6537 21.4306C95.6537 22.9302 94.9899 23.9914 93.6623 24.6141V24.6713C94.2423 24.9127 94.687 25.2813 94.9964 25.7769C95.3057 26.2598 95.4604 26.8508 95.4604 27.5497V29.5132C95.4604 29.9961 95.3057 30.3647 94.9964 30.6188C94.687 30.873 94.2359 31.0001 93.6429 31.0001V27.6641C93.6429 26.9143 93.4689 26.3488 93.1209 25.9675C92.7858 25.5736 92.2831 25.3766 91.6128 25.3766H87.0885V29.5132C87.0885 29.9961 86.9338 30.3647 86.6245 30.6188C86.328 30.873 85.8833 31.0001 85.2904 31.0001V18.3234ZM91.4968 23.8325C92.2057 23.8325 92.7664 23.6165 93.1789 23.1844C93.6043 22.7523 93.817 22.1613 93.817 21.4115C93.817 20.649 93.6172 20.0644 93.2176 19.6578C92.818 19.2511 92.2444 19.0478 91.4968 19.0478H87.0885V23.8325H91.4968Z" fill="#171A1D"/>
<path d="M73.3809 18.3234C73.3809 18.0819 73.4711 17.8849 73.6515 17.7324C73.832 17.5672 74.0511 17.4846 74.3089 17.4846H82.8741C82.8741 18.0184 82.7646 18.4123 82.5455 18.6665C82.3263 18.9207 81.9848 19.0478 81.5207 19.0478H75.1983V23.3178H80.612C80.612 23.8516 80.5024 24.2455 80.2833 24.4997C80.0642 24.7539 79.7291 24.881 79.2779 24.881H75.1983V29.2654H81.9268C82.3779 29.2654 82.713 29.3925 82.9322 29.6466C83.1513 29.9008 83.2608 30.2948 83.2608 30.8285H74.3089C74.0511 30.8285 73.832 30.7523 73.6515 30.5998C73.4711 30.4346 73.3809 30.2312 73.3809 29.9898V18.3234Z" fill="#171A1D"/>
<path d="M65.7515 31C64.6688 31 63.7021 30.8031 62.8513 30.4091C62.0006 30.0024 61.3368 29.4432 60.8599 28.7316C60.3958 28.0072 60.1638 27.1875 60.1638 26.2725V22.0024C60.1638 21.0874 60.3958 20.2741 60.8599 19.5624C61.3368 18.8507 61.9942 18.2979 62.832 17.9039C63.6698 17.51 64.6301 17.313 65.7128 17.313C66.7956 17.313 67.7559 17.4846 68.5937 17.8277C69.4315 18.1581 70.0825 18.622 70.5465 19.2193C71.0234 19.8166 71.2619 20.5028 71.2619 21.278C71.2619 21.6593 71.133 21.9579 70.8752 22.174C70.6174 22.39 70.2758 22.4981 69.8505 22.4981C69.7602 22.4981 69.6249 22.4853 69.4444 22.4599C69.4702 22.3074 69.4831 22.066 69.4831 21.7355C69.4831 21.1891 69.322 20.6998 68.9997 20.2677C68.6904 19.8356 68.2457 19.4988 67.6656 19.2574C67.0985 19.0159 66.4476 18.8952 65.7128 18.8952C64.991 18.8952 64.3465 19.0286 63.7794 19.2955C63.2122 19.5497 62.7675 19.9182 62.4453 20.4012C62.1359 20.8714 61.9813 21.4051 61.9813 22.0024V26.2725C61.9813 26.8825 62.1359 27.4289 62.4453 27.9119C62.7675 28.3821 63.2122 28.7506 63.7794 29.0175C64.3594 29.2844 65.0168 29.4178 65.7515 29.4178C66.4991 29.4178 67.1629 29.2971 67.743 29.0556C68.323 28.8142 68.7742 28.4838 69.0964 28.0644C69.4186 27.6323 69.5798 27.1367 69.5798 26.5775C69.5798 26.3741 69.5669 26.1327 69.5411 25.8531C69.7216 25.8277 69.8505 25.815 69.9278 25.815C70.3532 25.815 70.6947 25.9357 70.9525 26.1772C71.2232 26.4186 71.3586 26.7427 71.3586 27.1494C71.3586 27.8992 71.1201 28.5664 70.6432 29.1509C70.1662 29.7355 69.5024 30.193 68.6517 30.5235C67.8139 30.8412 66.8471 31 65.7515 31Z" fill="#171A1D"/>
<path d="M52.7395 31C51.6697 31 50.7094 30.7967 49.8586 30.39C49.0208 29.9706 48.3634 29.3988 47.8865 28.6744C47.4096 27.9373 47.1711 27.1239 47.1711 26.2344V22.0405C47.1711 21.151 47.4096 20.3503 47.8865 19.6386C48.3634 18.9143 49.0208 18.3487 49.8586 17.9421C50.7094 17.5227 51.6697 17.313 52.7395 17.313C53.8222 17.313 54.7825 17.5227 55.6204 17.9421C56.4711 18.3487 57.1349 18.9143 57.6118 19.6386C58.0887 20.3503 58.3272 21.151 58.3272 22.0405V26.2344C58.3272 27.1239 58.0887 27.9373 57.6118 28.6744C57.1349 29.3988 56.4711 29.9706 55.6204 30.39C54.7696 30.7967 53.8093 31 52.7395 31ZM52.7395 29.4369C53.9382 29.4369 54.8728 29.1446 55.543 28.56C56.2133 27.9754 56.5484 27.1938 56.5484 26.2153V22.0787C56.5484 21.1001 56.2133 20.3249 55.543 19.753C54.8728 19.1684 53.9382 18.8761 52.7395 18.8761C51.5536 18.8761 50.6256 19.1684 49.9553 19.753C49.2851 20.3249 48.9499 21.1001 48.9499 22.0787V26.2153C48.9499 27.1938 49.2851 27.9754 49.9553 28.56C50.6256 29.1446 51.5536 29.4369 52.7395 29.4369Z" fill="#171A1D"/>
<path d="M38.8635 30.8285C38.6057 30.8285 38.3802 30.7395 38.1868 30.5616C38.0064 30.371 37.9161 30.1486 37.9161 29.8944V18.7999C37.9161 17.8086 38.522 17.313 39.7336 17.313V29.2463H45.6693C46.1204 29.2463 46.4685 29.3861 46.7134 29.6656C46.9583 29.9325 47.0807 30.3201 47.0807 30.8285H38.8635Z" fill="#171A1D"/>
<path d="M24.9869 18.3234C24.9869 18.0819 25.0707 17.8849 25.2383 17.7324C25.4187 17.5672 25.6443 17.4846 25.915 17.4846H31.5607C32.4114 17.4846 33.1655 17.6625 33.8228 18.0184C34.4802 18.3615 34.9894 18.8508 35.3503 19.4862C35.7112 20.1089 35.8916 20.827 35.8916 21.6403C35.8916 22.4791 35.7112 23.2161 35.3503 23.8516C35.0023 24.487 34.4996 24.9763 33.8422 25.3194C33.1848 25.6625 32.4243 25.8341 31.5607 25.8341H26.8044V29.5132C26.8044 29.9961 26.6497 30.3647 26.3404 30.6188C26.031 30.873 25.5799 31.0001 24.9869 31.0001V18.3234ZM31.5607 24.2519C32.3341 24.2519 32.9463 24.0231 33.3975 23.5656C33.8486 23.0954 34.0742 22.4536 34.0742 21.6403C34.0742 20.8524 33.8422 20.2297 33.3781 19.7721C32.927 19.3019 32.3212 19.0668 31.5607 19.0668H26.8044V24.2519H31.5607Z" fill="#171A1D"/>
<path d="M13.0773 18.3234C13.0773 18.0819 13.1675 17.8849 13.348 17.7324C13.5284 17.5672 13.7475 17.4846 14.0053 17.4846H22.5706C22.5706 18.0184 22.461 18.4123 22.2419 18.6665C22.0227 18.9207 21.6812 19.0478 21.2171 19.0478H14.8947V23.3178H20.3084C20.3084 23.8516 20.1988 24.2455 19.9797 24.4997C19.7606 24.7539 19.4255 24.881 18.9743 24.881H14.8947V29.2654H21.6232C22.0743 29.2654 22.4094 29.3925 22.6286 29.6466C22.8477 29.9008 22.9572 30.2948 22.9572 30.8285H14.0053C13.7475 30.8285 13.5284 30.7523 13.348 30.5998C13.1675 30.4346 13.0773 30.2312 13.0773 29.9898V18.3234Z" fill="#171A1D"/>
<path d="M4.71764 19.0668H0C0 18.012 0.502699 17.4846 1.5081 17.4846H11.2334C11.2334 18.5394 10.7307 19.0668 9.7253 19.0668H6.53509V29.5132C6.53509 29.9961 6.38041 30.3647 6.07106 30.6188C5.76171 30.873 5.31057 31.0001 4.71764 31.0001V19.0668Z" fill="#171A1D"/>
<path d="M137.082 12.5599C138.563 12.5599 140.03 12.8476 141.398 13.4064C142.767 13.9652 144.01 14.7843 145.057 15.8169C146.105 16.8495 146.935 18.0753 147.502 19.4245C148.069 20.7736 148.361 22.2196 148.361 23.6799H146.669C146.669 22.4386 146.421 21.2095 145.939 20.0628C145.457 18.916 144.751 17.874 143.861 16.9963C142.971 16.1186 141.914 15.4224 140.751 14.9474C139.588 14.4724 138.341 14.2279 137.082 14.2279V12.5599Z" fill="#EF7C2A"/>
<path d="M137.082 9.78003C138.934 9.78003 140.767 10.1396 142.477 10.8381C144.188 11.5366 145.742 12.5605 147.051 13.8512C148.36 15.1419 149.399 16.6743 150.107 18.3607C150.816 20.0471 151.18 21.8546 151.18 23.6799H149.489C149.489 22.0736 149.168 20.483 148.544 18.999C147.921 17.5149 147.007 16.1665 145.855 15.0307C144.703 13.8948 143.335 12.9938 141.83 12.3791C140.325 11.7644 138.712 11.448 137.082 11.448V9.78003Z" fill="#EF7C2A"/>
<path d="M137.082 7C139.304 7 141.504 7.43144 143.556 8.26968C145.609 9.10792 147.474 10.3366 149.045 11.8854C150.616 13.4343 151.862 15.2731 152.712 17.2968C153.562 19.3205 154 21.4895 154 23.6799H152.308C152.308 21.7085 151.914 19.7564 151.149 17.9351C150.384 16.1138 149.263 14.4589 147.849 13.0649C146.435 11.6709 144.756 10.5651 142.909 9.8107C141.062 9.05628 139.082 8.66799 137.082 8.66799V7Z" fill="#EF7C2A"/>
</svg>
