<svg width="100" height="100" viewBox="0 0 100 100" fill="none" xmlns="http://www.w3.org/2000/svg">
<path d="M59 84H65H74C77.3137 84 80 81.3137 80 78V22C80 18.6863 77.3137 16 74 16H26C22.6863 16 20 18.6863 20 22V78C20 81.3137 22.6863 84 26 84H35H41" stroke="#5D646B" stroke-width="2"/>
<path d="M59.5 92H50H40.5M59.5 92H69H80C84.4183 92 88 88.4183 88 84V16C88 11.5817 84.4183 8 80 8H20C15.5817 8 12 11.5817 12 16V84C12 88.4183 15.5817 92 20 92H31H40.5M59.5 92V88V86.7553C59.5 84.9555 58.9888 83.1928 58.0258 81.6723V81.6723C54.2959 75.7829 45.7041 75.7829 41.9742 81.6723V81.6723C41.0112 83.1928 40.5 84.9555 40.5 86.7553V92" stroke="#5D646B" stroke-width="2"/>
<path d="M20 27H37.8593C39.1967 27 40.4456 27.6684 41.1875 28.7812L41.8125 29.7188C42.5544 30.8316 43.8033 31.5 45.1407 31.5H54.8593C56.1967 31.5 57.4456 30.8316 58.1875 29.7188L58.8125 28.7812C59.5544 27.6684 60.8033 27 62.1407 27H80" stroke="#5D646B" stroke-width="2"/>
<path d="M20 40H37.8593C39.1967 40 40.4456 40.6684 41.1875 41.7812L41.8125 42.7188C42.5544 43.8316 43.8033 44.5 45.1407 44.5H54.8593C56.1967 44.5 57.4456 43.8316 58.1875 42.7188L58.8125 41.7812C59.5544 40.6684 60.8033 40 62.1407 40H80" stroke="#5D646B" stroke-width="2"/>
<path d="M20 53H37.8593C39.1967 53 40.4456 53.6684 41.1875 54.7812L41.8125 55.7188C42.5544 56.8316 43.8033 57.5 45.1407 57.5H54.8593C56.1967 57.5 57.4456 56.8316 58.1875 55.7188L58.8125 54.7812C59.5544 53.6684 60.8033 53 62.1407 53H80" stroke="#5D646B" stroke-width="2"/>
<path d="M20 66H37.8593C39.1967 66 40.4456 66.6684 41.1875 67.7812L41.8125 68.7188C42.5544 69.8316 43.8033 70.5 45.1407 70.5H54.8593C56.1967 70.5 57.4456 69.8316 58.1875 68.7188L58.8125 67.7812C59.5544 66.6684 60.8033 66 62.1407 66H80" stroke="#5D646B" stroke-width="2"/>
</svg>
