<svg width="100" height="100" viewBox="0 0 100 100" fill="none" xmlns="http://www.w3.org/2000/svg">
<path d="M16 29H84C88.4183 29 92 32.5817 92 37V81C92 85.4183 88.4183 89 84 89H71H37.4H29H16C11.5817 89 8 85.4183 8 81V37C8 32.5817 11.5817 29 16 29Z" stroke="#5D646B" stroke-width="2"/>
<path d="M21 43L21 47.2985L21 75" stroke="#5D646B" stroke-width="2" stroke-linecap="round"/>
<path d="M26 89L26 89.806L26 95" stroke="#5D646B" stroke-width="2" stroke-linecap="round"/>
<path d="M33 5L32.6313 5.82958C31.6048 8.13915 31.7301 10.798 32.9692 13.0008L33.3913 13.7512C34.6781 16.0388 34.5256 18.8642 33 21V21" stroke="#5D646B" stroke-width="2" stroke-linecap="round"/>
<path d="M49.5 5L49.1313 5.82958C48.1048 8.13915 48.2301 10.798 49.4692 13.0008L49.8913 13.7512C51.1781 16.0388 51.0256 18.8642 49.5 21V21" stroke="#5D646B" stroke-width="2" stroke-linecap="round"/>
<path d="M66 5L65.6313 5.82958C64.6048 8.13915 64.7301 10.798 65.9692 13.0008L66.3913 13.7512C67.6781 16.0388 67.5256 18.8642 66 21V21" stroke="#5D646B" stroke-width="2" stroke-linecap="round"/>
<path d="M74 89L74 89.806L74 95" stroke="#5D646B" stroke-width="2" stroke-linecap="round"/>
<path d="M36 43L36 47.2985L36 75" stroke="#5D646B" stroke-width="2" stroke-linecap="round"/>
<path d="M50 43L50 47.2985L50 75" stroke="#5D646B" stroke-width="2" stroke-linecap="round"/>
<path d="M64 43L64 47.2985L64 75" stroke="#5D646B" stroke-width="2" stroke-linecap="round"/>
<path d="M79 43L79 47.2985L79 75" stroke="#5D646B" stroke-width="2" stroke-linecap="round"/>
</svg>
