<svg width="62" height="34" viewBox="0 0 62 34" fill="none" xmlns="http://www.w3.org/2000/svg">
<rect width="62" height="34" rx="2" fill="#EF7C2A"/>
<path d="M19.84 22.108C19.168 22.108 18.584 22.012 18.088 21.82C17.6 21.628 17.228 21.372 16.972 21.052C16.716 20.732 16.588 20.388 16.588 20.02C16.588 19.716 16.668 19.484 16.828 19.324C16.988 19.156 17.232 19.072 17.56 19.072C17.56 19.752 17.764 20.272 18.172 20.632C18.58 20.984 19.152 21.16 19.888 21.16C20.592 21.16 21.132 21.044 21.508 20.812C21.884 20.572 22.072 20.22 22.072 19.756C22.072 19.476 22 19.248 21.856 19.072C21.72 18.888 21.484 18.732 21.148 18.604C20.82 18.468 20.344 18.332 19.72 18.196C18.984 18.036 18.4 17.852 17.968 17.644C17.536 17.428 17.22 17.168 17.02 16.864C16.82 16.56 16.72 16.184 16.72 15.736C16.72 15.288 16.844 14.896 17.092 14.56C17.348 14.216 17.708 13.952 18.172 13.768C18.636 13.584 19.176 13.492 19.792 13.492C20.376 13.492 20.896 13.576 21.352 13.744C21.816 13.904 22.176 14.136 22.432 14.44C22.696 14.736 22.828 15.072 22.828 15.448C22.828 15.68 22.752 15.864 22.6 16C22.456 16.128 22.228 16.192 21.916 16.192C21.828 15.584 21.612 15.14 21.268 14.86C20.932 14.58 20.44 14.44 19.792 14.44C19.168 14.44 18.688 14.552 18.352 14.776C18.016 14.992 17.848 15.3 17.848 15.7C17.848 15.98 17.908 16.212 18.028 16.396C18.156 16.572 18.368 16.724 18.664 16.852C18.968 16.98 19.392 17.104 19.936 17.224C20.752 17.4 21.392 17.596 21.856 17.812C22.328 18.028 22.668 18.292 22.876 18.604C23.084 18.916 23.188 19.3 23.188 19.756C23.188 20.484 22.884 21.06 22.276 21.484C21.668 21.9 20.856 22.108 19.84 22.108ZM24.726 22.108C24.486 22.06 24.298 21.96 24.162 21.808C24.026 21.648 23.958 21.456 23.958 21.232C23.958 21.08 23.994 20.92 24.066 20.752L26.934 13.852C27.03 13.612 27.214 13.492 27.486 13.492C27.742 13.492 27.922 13.612 28.026 13.852L30.894 20.752C30.966 20.92 31.002 21.08 31.002 21.232C31.002 21.448 30.934 21.636 30.798 21.796C30.662 21.956 30.474 22.06 30.234 22.108L29.202 19.6H25.758L24.726 22.108ZM28.854 18.628L27.306 14.704L27.21 14.74L27.426 15.292L26.106 18.628H28.854ZM32.9671 22C32.8071 22 32.6671 21.944 32.5471 21.832C32.4351 21.712 32.3791 21.572 32.3791 21.412V14.428C32.3791 13.804 32.7551 13.492 33.5071 13.492V21.004H37.1911C37.4711 21.004 37.6871 21.092 37.8391 21.268C37.9911 21.436 38.0671 21.68 38.0671 22H32.9671ZM39.3283 14.128C39.3283 13.976 39.3843 13.852 39.4963 13.756C39.6083 13.652 39.7443 13.6 39.9043 13.6H45.2203C45.2203 13.936 45.1523 14.184 45.0163 14.344C44.8803 14.504 44.6683 14.584 44.3803 14.584H40.4563V17.272H43.8163C43.8163 17.608 43.7483 17.856 43.6123 18.016C43.4763 18.176 43.2683 18.256 42.9883 18.256H40.4563V21.016H44.6323C44.9123 21.016 45.1203 21.096 45.2563 21.256C45.3923 21.416 45.4603 21.664 45.4603 22H39.9043C39.7443 22 39.6083 21.952 39.4963 21.856C39.3843 21.752 39.3283 21.624 39.3283 21.472V14.128Z" fill="#F8F9FA"/>
</svg>
