<svg width="100" height="100" viewBox="0 0 100 100" fill="none" xmlns="http://www.w3.org/2000/svg">
<path d="M92.2218 55.0847H18.057C16.766 55.0847 15.5544 54.4616 14.8034 53.4115L4.52464 39.0387C2.63145 36.3914 4.5237 32.7118 7.77824 32.7118H81.943C83.234 32.7118 84.4456 33.3349 85.1966 34.385L95.4754 48.7579C97.3685 51.4051 95.4763 55.0847 92.2218 55.0847Z" stroke="#5D646B" stroke-width="2"/>
<path d="M21 20L21 21.6393L21 32.2034" stroke="#5D646B" stroke-width="2" stroke-linecap="round"/>
<path d="M33 63.7288L32.5818 64.6856C31.5847 66.9671 31.7067 69.5827 32.9118 71.7615L33.3947 72.6345C34.6827 74.9631 34.5295 77.8224 33 79.9999V79.9999" stroke="#5D646B" stroke-width="2" stroke-linecap="round"/>
<path d="M49.5 63.7288L49.0818 64.6856C48.0847 66.9671 48.2067 69.5827 49.4118 71.7615L49.8947 72.6345C51.1827 74.9631 51.0295 77.8224 49.5 79.9999V79.9999" stroke="#5D646B" stroke-width="2" stroke-linecap="round"/>
<path d="M66 63.7288L65.5818 64.6856C64.5847 66.9671 64.7067 69.5827 65.9118 71.7615L66.3947 72.6345C67.6827 74.9631 67.5295 77.8224 66 79.9999V79.9999" stroke="#5D646B" stroke-width="2" stroke-linecap="round"/>
<path d="M71 20L71 21.6393L71 32.2034" stroke="#5D646B" stroke-width="2" stroke-linecap="round"/>
<path d="M83 47.4576L74.9403 47.4576L23 47.4576" stroke="#5D646B" stroke-width="1.5" stroke-linecap="round"/>
<path d="M78 40.339L69.9403 40.339L18 40.339" stroke="#5D646B" stroke-width="1.5" stroke-linecap="round"/>
</svg>
